<mxfile host="app.diagrams.net" agent="Mozilla/5.0 (Windows NT 10.0; Win64; x64) AppleWebKit/537.36 (KHTML, like Gecko) Chrome/131.0.0.0 Safari/537.36 Edg/131.0.0.0" version="25.0.3">
  <diagram name="Страница — 1" id="5ZA16skYAQEx7ZZM6paq">
    <mxGraphModel dx="1395" dy="709" grid="1" gridSize="10" guides="1" tooltips="1" connect="1" arrows="1" fold="1" page="1" pageScale="1" pageWidth="827" pageHeight="1169" math="0" shadow="0">
      <root>
        <mxCell id="0" />
        <mxCell id="1" parent="0" />
        <mxCell id="gfOVu31cXwcD_PvVs0yX-1" value="Проверка&lt;div&gt;&lt;span style=&quot;background-color: initial;&quot;&gt;данных&lt;/span&gt;&lt;/div&gt;&lt;div&gt;&lt;span style=&quot;background-color: initial;&quot;&gt;пациента&lt;/span&gt;&lt;/div&gt;" style="ellipse;whiteSpace=wrap;html=1;aspect=fixed;" vertex="1" parent="1">
          <mxGeometry x="130" y="200" width="100" height="100" as="geometry" />
        </mxCell>
        <mxCell id="gfOVu31cXwcD_PvVs0yX-2" value="Поиск доступного времени" style="ellipse;whiteSpace=wrap;html=1;aspect=fixed;" vertex="1" parent="1">
          <mxGeometry x="130" y="490" width="94" height="94" as="geometry" />
        </mxCell>
        <mxCell id="gfOVu31cXwcD_PvVs0yX-3" value="Обновление расписания" style="ellipse;whiteSpace=wrap;html=1;aspect=fixed;" vertex="1" parent="1">
          <mxGeometry x="130" y="630" width="100" height="100" as="geometry" />
        </mxCell>
        <mxCell id="gfOVu31cXwcD_PvVs0yX-5" value="Пациент" style="rounded=0;whiteSpace=wrap;html=1;" vertex="1" parent="1">
          <mxGeometry x="120" y="70" width="120" height="60" as="geometry" />
        </mxCell>
        <mxCell id="gfOVu31cXwcD_PvVs0yX-6" value="" style="endArrow=classic;html=1;rounded=0;exitX=0.5;exitY=1;exitDx=0;exitDy=0;entryX=0.5;entryY=0;entryDx=0;entryDy=0;" edge="1" parent="1" source="gfOVu31cXwcD_PvVs0yX-5" target="gfOVu31cXwcD_PvVs0yX-1">
          <mxGeometry width="50" height="50" relative="1" as="geometry">
            <mxPoint x="330" y="410" as="sourcePoint" />
            <mxPoint x="380" y="360" as="targetPoint" />
          </mxGeometry>
        </mxCell>
        <mxCell id="gfOVu31cXwcD_PvVs0yX-7" value="данные пациента" style="edgeLabel;html=1;align=center;verticalAlign=middle;resizable=0;points=[];" vertex="1" connectable="0" parent="gfOVu31cXwcD_PvVs0yX-6">
          <mxGeometry x="0.0865" y="1" relative="1" as="geometry">
            <mxPoint as="offset" />
          </mxGeometry>
        </mxCell>
        <mxCell id="gfOVu31cXwcD_PvVs0yX-8" value="Выбор специалиста" style="ellipse;whiteSpace=wrap;html=1;aspect=fixed;" vertex="1" parent="1">
          <mxGeometry x="130" y="340" width="100" height="100" as="geometry" />
        </mxCell>
        <mxCell id="gfOVu31cXwcD_PvVs0yX-9" value="" style="endArrow=classic;html=1;rounded=0;exitX=0.5;exitY=1;exitDx=0;exitDy=0;entryX=0.5;entryY=0;entryDx=0;entryDy=0;" edge="1" parent="1" source="gfOVu31cXwcD_PvVs0yX-1" target="gfOVu31cXwcD_PvVs0yX-8">
          <mxGeometry width="50" height="50" relative="1" as="geometry">
            <mxPoint x="330" y="410" as="sourcePoint" />
            <mxPoint x="380" y="360" as="targetPoint" />
          </mxGeometry>
        </mxCell>
        <mxCell id="gfOVu31cXwcD_PvVs0yX-10" value="детальные данные запроса" style="edgeLabel;html=1;align=center;verticalAlign=middle;resizable=0;points=[];" vertex="1" connectable="0" parent="gfOVu31cXwcD_PvVs0yX-9">
          <mxGeometry x="-0.0128" y="-7" relative="1" as="geometry">
            <mxPoint as="offset" />
          </mxGeometry>
        </mxCell>
        <mxCell id="gfOVu31cXwcD_PvVs0yX-11" value="врачи больницы" style="html=1;dashed=0;whiteSpace=wrap;shape=partialRectangle;right=0;left=0;" vertex="1" parent="1">
          <mxGeometry x="350" y="375" width="100" height="30" as="geometry" />
        </mxCell>
        <mxCell id="gfOVu31cXwcD_PvVs0yX-12" value="" style="endArrow=classic;html=1;rounded=0;exitX=0;exitY=0.5;exitDx=0;exitDy=0;entryX=1;entryY=0.5;entryDx=0;entryDy=0;" edge="1" parent="1" source="gfOVu31cXwcD_PvVs0yX-11" target="gfOVu31cXwcD_PvVs0yX-8">
          <mxGeometry width="50" height="50" relative="1" as="geometry">
            <mxPoint x="330" y="410" as="sourcePoint" />
            <mxPoint x="380" y="360" as="targetPoint" />
          </mxGeometry>
        </mxCell>
        <mxCell id="gfOVu31cXwcD_PvVs0yX-13" value="имеющиеся&amp;nbsp;&lt;div&gt;специалисты&lt;/div&gt;" style="edgeLabel;html=1;align=center;verticalAlign=middle;resizable=0;points=[];" vertex="1" connectable="0" parent="gfOVu31cXwcD_PvVs0yX-12">
          <mxGeometry x="0.1424" y="3" relative="1" as="geometry">
            <mxPoint x="18" y="-3" as="offset" />
          </mxGeometry>
        </mxCell>
        <mxCell id="gfOVu31cXwcD_PvVs0yX-14" value="" style="endArrow=classic;html=1;rounded=0;exitX=0.5;exitY=1;exitDx=0;exitDy=0;entryX=0.5;entryY=0;entryDx=0;entryDy=0;" edge="1" parent="1" source="gfOVu31cXwcD_PvVs0yX-8" target="gfOVu31cXwcD_PvVs0yX-2">
          <mxGeometry width="50" height="50" relative="1" as="geometry">
            <mxPoint x="330" y="410" as="sourcePoint" />
            <mxPoint x="380" y="360" as="targetPoint" />
          </mxGeometry>
        </mxCell>
        <mxCell id="gfOVu31cXwcD_PvVs0yX-15" value="выбранный врач" style="edgeLabel;html=1;align=center;verticalAlign=middle;resizable=0;points=[];" vertex="1" connectable="0" parent="gfOVu31cXwcD_PvVs0yX-14">
          <mxGeometry x="-0.158" y="1" relative="1" as="geometry">
            <mxPoint as="offset" />
          </mxGeometry>
        </mxCell>
        <mxCell id="gfOVu31cXwcD_PvVs0yX-16" value="расписание врачей" style="html=1;dashed=0;whiteSpace=wrap;shape=partialRectangle;right=0;left=0;" vertex="1" parent="1">
          <mxGeometry x="350" y="529" width="100" height="30" as="geometry" />
        </mxCell>
        <mxCell id="gfOVu31cXwcD_PvVs0yX-17" value="" style="endArrow=classic;html=1;rounded=0;exitX=0;exitY=0.5;exitDx=0;exitDy=0;entryX=1;entryY=0.5;entryDx=0;entryDy=0;" edge="1" parent="1" source="gfOVu31cXwcD_PvVs0yX-16" target="gfOVu31cXwcD_PvVs0yX-2">
          <mxGeometry width="50" height="50" relative="1" as="geometry">
            <mxPoint x="330" y="410" as="sourcePoint" />
            <mxPoint x="380" y="360" as="targetPoint" />
          </mxGeometry>
        </mxCell>
        <mxCell id="gfOVu31cXwcD_PvVs0yX-18" value="свободное время" style="edgeLabel;html=1;align=center;verticalAlign=middle;resizable=0;points=[];" vertex="1" connectable="0" parent="gfOVu31cXwcD_PvVs0yX-17">
          <mxGeometry x="-0.0272" relative="1" as="geometry">
            <mxPoint as="offset" />
          </mxGeometry>
        </mxCell>
        <mxCell id="gfOVu31cXwcD_PvVs0yX-19" value="" style="endArrow=classic;html=1;rounded=0;exitX=0.5;exitY=1;exitDx=0;exitDy=0;entryX=0.5;entryY=0;entryDx=0;entryDy=0;" edge="1" parent="1" source="gfOVu31cXwcD_PvVs0yX-2" target="gfOVu31cXwcD_PvVs0yX-3">
          <mxGeometry width="50" height="50" relative="1" as="geometry">
            <mxPoint x="330" y="410" as="sourcePoint" />
            <mxPoint x="380" y="360" as="targetPoint" />
          </mxGeometry>
        </mxCell>
        <mxCell id="gfOVu31cXwcD_PvVs0yX-20" value="подтверждение записи" style="edgeLabel;html=1;align=center;verticalAlign=middle;resizable=0;points=[];" vertex="1" connectable="0" parent="gfOVu31cXwcD_PvVs0yX-19">
          <mxGeometry x="-0.1072" y="2" relative="1" as="geometry">
            <mxPoint as="offset" />
          </mxGeometry>
        </mxCell>
        <mxCell id="gfOVu31cXwcD_PvVs0yX-21" value="" style="endArrow=classic;html=1;rounded=0;exitX=1;exitY=0.5;exitDx=0;exitDy=0;entryX=0.5;entryY=1;entryDx=0;entryDy=0;" edge="1" parent="1" source="gfOVu31cXwcD_PvVs0yX-3" target="gfOVu31cXwcD_PvVs0yX-16">
          <mxGeometry width="50" height="50" relative="1" as="geometry">
            <mxPoint x="530" y="590" as="sourcePoint" />
            <mxPoint x="580" y="540" as="targetPoint" />
          </mxGeometry>
        </mxCell>
        <mxCell id="gfOVu31cXwcD_PvVs0yX-22" value="сохранение изменений" style="edgeLabel;html=1;align=center;verticalAlign=middle;resizable=0;points=[];" vertex="1" connectable="0" parent="gfOVu31cXwcD_PvVs0yX-21">
          <mxGeometry x="-0.0352" y="-2" relative="1" as="geometry">
            <mxPoint as="offset" />
          </mxGeometry>
        </mxCell>
      </root>
    </mxGraphModel>
  </diagram>
</mxfile>
